<?xml version="1.0" encoding="UTF-8"?><svg id="Layer_2" xmlns="http://www.w3.org/2000/svg" viewBox="0 0 1842.22 603.6"><defs><style>.cls-1{fill:#8ab900;}.cls-1,.cls-2,.cls-3,.cls-4{stroke-width:0px;}.cls-2,.cls-5,.cls-6,.cls-7{fill:none;}.cls-5{stroke:#385073;stroke-linejoin:round;}.cls-5,.cls-6,.cls-7{stroke-linecap:round;}.cls-5,.cls-7{stroke-width:36px;}.cls-3{fill:#005bb8;}.cls-6{stroke:#005bb8;stroke-width:18px;}.cls-6,.cls-7{stroke-miterlimit:10;}.cls-4{fill:#385073;}.cls-7{stroke:#8ab900;}</style></defs><path class="cls-3" d="m503.49,484.53c-3.26-3.52-4.88-8.12-4.88-13.79v-172.29c0-5.67,1.63-10.22,4.88-13.65,3.25-3.42,7.58-5.14,12.98-5.14s10,1.72,13.26,5.14c3.25,3.43,4.88,7.98,4.88,13.65v172.29c0,5.68-1.63,10.27-4.88,13.79-3.26,3.52-7.67,5.28-13.26,5.28s-9.72-1.76-12.98-5.28Z"/><path class="cls-3" d="m693.44,359.57c8.17,9.5,12.25,23.85,12.25,43.03v70.11c0,5.32-1.57,9.5-4.7,12.54-3.13,3.04-7.46,4.56-12.97,4.56s-9.88-1.52-13.11-4.56c-3.23-3.04-4.85-7.22-4.85-12.54v-68.11c0-10.83-2.04-18.71-6.13-23.65-4.09-4.94-10.5-7.41-19.24-7.41-10.26,0-18.48,3.23-24.65,9.69-6.18,6.46-9.26,15.1-9.26,25.93v63.55c0,5.32-1.62,9.5-4.85,12.54-3.23,3.04-7.6,4.56-13.11,4.56s-9.83-1.52-12.97-4.56c-3.14-3.04-4.7-7.22-4.7-12.54v-110.29c0-4.94,1.61-8.93,4.85-11.97,3.23-3.04,7.6-4.56,13.11-4.56,4.94,0,8.98,1.47,12.11,4.42,3.13,2.95,4.7,6.79,4.7,11.54v7.69c4.75-7.79,11.11-13.77,19.09-17.95,7.98-4.18,17-6.27,27.07-6.27,16.72,0,29.16,4.75,37.33,14.25Z"/><path class="cls-3" d="m742.17,478.13c-6.08-3.61-9.12-8.74-9.12-15.39,0-3.8,1.04-6.88,3.13-9.26,2.09-2.37,4.65-3.56,7.69-3.56,3.23,0,7.69,1.52,13.39,4.56,6.08,2.85,11.64,5.04,16.67,6.56,5.03,1.52,11.44,2.28,19.24,2.28s14.2-1.33,18.67-3.99c4.46-2.66,6.7-6.36,6.7-11.12,0-3.23-.9-5.79-2.71-7.69-1.81-1.9-5.04-3.66-9.69-5.27-4.66-1.61-11.73-3.47-21.23-5.56-16.91-3.42-29.02-8.26-36.34-14.53-7.32-6.27-10.97-14.91-10.97-25.93,0-8.36,2.47-15.91,7.41-22.66,4.94-6.74,11.73-11.97,20.38-15.67,8.64-3.7,18.48-5.56,29.5-5.56,7.98,0,15.67,1,23.08,2.99,7.41,2,14.06,4.89,19.95,8.69,6.08,3.8,9.12,8.83,9.12,15.1,0,3.8-1.05,6.98-3.14,9.55-2.09,2.56-4.66,3.85-7.69,3.85-2.09,0-4.13-.43-6.13-1.28-1.99-.85-4.52-2.14-7.55-3.85-5.51-2.85-10.26-4.99-14.25-6.41-3.99-1.42-8.93-2.14-14.82-2.14-7.03,0-12.59,1.43-16.67,4.27-4.09,2.85-6.13,6.75-6.13,11.69s2.09,8.36,6.27,10.83c4.18,2.47,12.25,4.94,24.22,7.41,12.73,2.66,22.7,5.7,29.92,9.12,7.22,3.42,12.4,7.69,15.53,12.82,3.13,5.13,4.7,11.69,4.7,19.66,0,12.92-5.37,23.28-16.1,31.06-10.74,7.79-25.03,11.68-42.89,11.68-20.71,0-37.43-4.08-50.16-12.25Z"/><path class="cls-3" d="m965.32,476.13c0,4.56-1.85,8.03-5.56,10.4-3.7,2.37-8.98,3.37-15.82,2.99l-7.69-.57c-31.92-2.28-47.88-19.38-47.88-51.3v-62.13h-14.25c-5.13,0-9.08-1.14-11.83-3.42-2.75-2.28-4.13-5.6-4.13-9.97s1.38-7.69,4.13-9.97c2.75-2.28,6.7-3.42,11.83-3.42h14.25v-26.22c0-5.13,1.61-9.21,4.84-12.25,3.23-3.04,7.6-4.56,13.11-4.56s9.59,1.52,12.82,4.56c3.23,3.04,4.84,7.13,4.84,12.25v26.22h24.22c5.13,0,9.07,1.14,11.83,3.42,2.75,2.28,4.13,5.61,4.13,9.97s-1.38,7.69-4.13,9.97c-2.76,2.28-6.7,3.42-11.83,3.42h-24.22v64.69c0,14.06,6.46,21.57,19.38,22.51l7.69.57c9.5.57,14.25,4.85,14.25,12.82Z"/><path class="cls-3" d="m1087.43,359.71c9.4,9.6,14.11,24.18,14.11,43.75v69.54c0,5.13-1.52,9.17-4.56,12.11-3.04,2.95-7.22,4.42-12.54,4.42-4.94,0-8.98-1.52-12.11-4.56-3.13-3.04-4.7-7.03-4.7-11.97v-6.27c-3.23,7.41-8.31,13.21-15.25,17.38-6.94,4.18-14.96,6.27-24.08,6.27s-17.77-1.9-25.36-5.7c-7.6-3.8-13.59-9.02-17.95-15.67-4.37-6.65-6.55-14.06-6.55-22.23,0-10.26,2.61-18.33,7.84-24.22,5.22-5.89,13.72-10.16,25.51-12.82,11.78-2.66,28.02-3.99,48.73-3.99h7.12v-6.55c0-9.31-1.99-16.1-5.98-20.38-3.99-4.27-10.45-6.41-19.38-6.41-5.51,0-11.11.81-16.81,2.42-5.7,1.62-12.45,3.95-20.23,6.98-4.94,2.47-8.55,3.7-10.83,3.7-3.42,0-6.22-1.23-8.41-3.7-2.19-2.47-3.28-5.7-3.28-9.69,0-3.23.81-6.03,2.42-8.41,1.61-2.37,4.32-4.6,8.12-6.7,6.65-3.61,14.58-6.46,23.8-8.55,9.21-2.09,18.28-3.13,27.22-3.13,19.38,0,33.77,4.8,43.18,14.39Zm-28.78,95.47c5.99-6.36,8.98-14.58,8.98-24.65v-5.99h-5.13c-12.73,0-22.61.57-29.64,1.71-7.03,1.14-12.07,3.13-15.1,5.98-3.04,2.85-4.56,6.75-4.56,11.69,0,6.08,2.14,11.07,6.41,14.96,4.28,3.9,9.55,5.84,15.82,5.84,9.5,0,17.24-3.18,23.23-9.55Z"/><path class="cls-4" d="m1179.77,478.13c-14.53-8.36-25.7-20.33-33.49-35.91-7.79-15.58-11.69-33.82-11.69-54.72s3.89-39.09,11.69-54.58c7.79-15.48,18.95-27.4,33.49-35.77,14.53-8.36,31.49-12.54,50.87-12.54,12.54,0,24.32,1.85,35.34,5.56,11.02,3.7,20.81,9.08,29.35,16.1,2.47,1.9,4.18,3.9,5.13,5.99.95,2.09,1.43,4.66,1.43,7.69,0,4.18-1.14,7.69-3.42,10.54-2.28,2.85-5.04,4.27-8.26,4.27-3.8,0-7.69-1.33-11.69-3.99-8.17-6.08-15.77-10.3-22.8-12.68-7.03-2.37-14.82-3.56-23.37-3.56-19.76,0-34.73,6.18-44.89,18.52-10.17,12.35-15.25,30.49-15.25,54.43s5.08,42.37,15.25,54.72c10.16,12.35,25.12,18.52,44.89,18.52,8.17,0,15.72-1.23,22.66-3.7,6.93-2.47,14.77-6.65,23.51-12.54,1.9-1.14,3.8-2.09,5.7-2.85,1.9-.76,3.89-1.14,5.98-1.14,3.23,0,5.98,1.43,8.26,4.27,2.28,2.85,3.42,6.37,3.42,10.55,0,2.85-.48,5.37-1.43,7.55-.95,2.19-2.66,4.23-5.13,6.13-8.55,7.03-18.34,12.4-29.35,16.1-11.02,3.7-22.8,5.56-35.34,5.56-19.38,0-36.34-4.18-50.87-12.54Z"/><path class="cls-4" d="m1335.94,485.39c-3.33-2.94-4.99-7.17-4.99-12.68v-170.14c0-5.51,1.66-9.69,4.99-12.54,3.32-2.85,7.55-4.27,12.68-4.27s9.41,1.43,12.82,4.27c3.42,2.85,5.13,7.03,5.13,12.54v170.14c0,5.51-1.71,9.74-5.13,12.68-3.42,2.94-7.69,4.42-12.82,4.42s-9.36-1.47-12.68-4.42Z"/><path class="cls-4" d="m1506.93,359.71c9.4,9.6,14.11,24.18,14.11,43.75v69.54c0,5.13-1.52,9.17-4.56,12.11-3.04,2.95-7.22,4.42-12.54,4.42-4.94,0-8.98-1.52-12.11-4.56-3.14-3.04-4.7-7.03-4.7-11.97v-6.27c-3.23,7.41-8.31,13.21-15.25,17.38-6.94,4.18-14.96,6.27-24.08,6.27s-17.77-1.9-25.36-5.7c-7.6-3.8-13.59-9.02-17.95-15.67-4.37-6.65-6.56-14.06-6.56-22.23,0-10.26,2.61-18.33,7.84-24.22,5.22-5.89,13.72-10.16,25.51-12.82,11.78-2.66,28.02-3.99,48.73-3.99h7.12v-6.55c0-9.31-1.99-16.1-5.98-20.38-3.99-4.27-10.45-6.41-19.38-6.41-5.51,0-11.11.81-16.81,2.42-5.7,1.62-12.45,3.95-20.23,6.98-4.94,2.47-8.55,3.7-10.83,3.7-3.42,0-6.22-1.23-8.41-3.7-2.19-2.47-3.28-5.7-3.28-9.69,0-3.23.81-6.03,2.42-8.41,1.61-2.37,4.32-4.6,8.12-6.7,6.65-3.61,14.58-6.46,23.8-8.55,9.21-2.09,18.29-3.13,27.22-3.13,19.38,0,33.77,4.8,43.18,14.39Zm-28.79,95.47c5.99-6.36,8.98-14.58,8.98-24.65v-5.99h-5.13c-12.73,0-22.61.57-29.64,1.71-7.03,1.14-12.07,3.13-15.1,5.98-3.04,2.85-4.56,6.75-4.56,11.69,0,6.08,2.14,11.07,6.41,14.96,4.28,3.9,9.55,5.84,15.82,5.84,9.5,0,17.24-3.18,23.23-9.55Z"/><path class="cls-4" d="m1559.51,315.25c-3.8-3.51-5.7-8.12-5.7-13.82s1.9-10.26,5.7-13.68c3.8-3.42,8.93-5.13,15.39-5.13s11.35,1.71,15.25,5.13c3.89,3.42,5.84,7.98,5.84,13.68s-1.9,10.31-5.7,13.82c-3.8,3.52-8.93,5.27-15.39,5.27s-11.59-1.75-15.39-5.27Zm2.71,170.14c-3.33-2.94-4.99-7.17-4.99-12.68v-110.01c0-5.51,1.66-9.69,4.99-12.54,3.32-2.85,7.55-4.27,12.68-4.27s9.4,1.43,12.82,4.27c3.42,2.85,5.13,7.03,5.13,12.54v110.01c0,5.51-1.71,9.74-5.13,12.68-3.42,2.94-7.69,4.42-12.82,4.42s-9.36-1.47-12.68-4.42Z"/><path class="cls-4" d="m1830.11,358.86c8.07,9.03,12.11,23.61,12.11,43.75v70.11c0,5.51-1.67,9.74-4.99,12.68-3.33,2.94-7.65,4.42-12.97,4.42s-9.36-1.47-12.68-4.42c-3.33-2.94-4.99-7.17-4.99-12.68v-70.11c0-10.45-1.85-17.9-5.56-22.37-3.7-4.46-9.36-6.7-16.96-6.7-9.31,0-16.72,3.18-22.23,9.55-5.51,6.37-8.26,15.06-8.26,26.08v63.55c0,5.51-1.67,9.74-4.99,12.68-3.33,2.94-7.55,4.42-12.68,4.42s-9.4-1.47-12.82-4.42c-3.42-2.94-5.13-7.17-5.13-12.68v-70.11c0-10.45-1.85-17.9-5.56-22.37-3.7-4.46-9.36-6.7-16.96-6.7-9.31,0-16.67,3.18-22.09,9.55-5.42,6.37-8.12,15.06-8.12,26.08v63.55c0,5.51-1.71,9.74-5.13,12.68-3.42,2.94-7.69,4.42-12.82,4.42s-9.36-1.47-12.68-4.42c-3.33-2.94-4.99-7.17-4.99-12.68v-110.29c0-5.32,1.71-9.4,5.13-12.25,3.42-2.85,7.69-4.27,12.82-4.27s8.98,1.38,12.11,4.13c3.13,2.76,4.7,6.7,4.7,11.83v6.84c4.37-7.6,10.21-13.39,17.53-17.38,7.31-3.99,15.72-5.98,25.22-5.98,20.9,0,34.86,8.74,41.89,26.22,4.18-7.98,10.35-14.34,18.52-19.09,8.17-4.75,17.38-7.12,27.64-7.12,15.2,0,26.83,4.52,34.91,13.54Z"/><line class="cls-7" x1="114.22" y1="298.67" x2="306.22" y2="298.67"/><line class="cls-7" x1="114.22" y1="394.67" x2="306.22" y2="394.67"/><line class="cls-7" x1="114.22" y1="490.67" x2="306.22" y2="490.67"/><path class="cls-5" d="m210.22,106.67l144,144h-144V106.67s-96,0-96,0c0,0-96,0-96,96v288s0,96,96,96h192s96,0,96-96v-192"/><g id="_Radial_Repeat_"><circle class="cls-1" cx="516.31" cy="227.44" r="17.98" transform="translate(279.48 739.51) rotate(-88.95)"/></g><g id="_Radial_Repeat_-2"><circle class="cls-1" cx="530.95" cy="160.39" r="17.98" transform="translate(-16.22 251.15) rotate(-26.23)"/></g><g id="_Radial_Repeat_-3"><circle class="cls-1" cx="513.24" cy="94.08" r="17.98" transform="translate(132.32 450.68) rotate(-53.5)"/></g><g id="_Radial_Repeat_-4"><circle class="cls-1" cx="467.11" cy="43.26" r="17.98" transform="translate(349.5 497.39) rotate(-80.77)"/></g><g id="_Radial_Repeat_-5"><circle class="cls-1" cx="402.83" cy="19.23" r="17.98" transform="translate(13.86 125.72) rotate(-18.04)"/></g><g id="_Radial_Repeat_-6"><circle class="cls-1" cx="334.67" cy="27.32" r="17.98" transform="translate(78.7 244.65) rotate(-45)"/></g><g id="_Radial_Repeat_-7"><circle class="cls-1" cx="277.81" cy="65.75" r="17.98" transform="translate(131.95 311.15) rotate(-72.59)"/></g><polyline class="cls-6" points="402.22 82.67 402.22 178.67 450.22 226.67"/><rect id="_Slice_" class="cls-2" y=".23" width="1842.22" height="604.21"/></svg>